<svg viewBox="0 0 24 24" fill="none" xmlns="http://www.w3.org/2000/svg">
  <path d="M12 10.11C13.03 10.11 13.87 10.95 13.87 12C13.87 13.05 13.03 13.89 12 13.89C10.97 13.89 10.13 13.05 10.13 12C10.13 10.95 10.97 10.11 12 10.11M7.37 20C8.1 19.85 8.8 19.5 9.43 19.07C10.17 18.61 10.84 18.05 11.44 17.41C10.2 15.84 9.3 14.12 8.81 12.31C8.32 14.12 7.42 15.84 6.18 17.41C6.78 18.05 7.45 18.61 8.19 19.07C8.82 19.5 9.52 19.85 10.25 20C9.12 20.29 7.95 20.29 6.82 20C7.17 20.09 7.52 20.05 7.87 20H7.37ZM16.63 20C15.9 19.85 15.2 19.5 14.57 19.07C13.83 18.61 13.16 18.05 12.56 17.41C13.8 15.84 14.7 14.12 15.19 12.31C15.68 14.12 16.58 15.84 17.82 17.41C17.22 18.05 16.55 18.61 15.81 19.07C15.18 19.5 14.48 19.85 13.75 20C14.88 20.29 16.05 20.29 17.18 20C16.83 20.09 16.48 20.05 16.13 20H16.63ZM7.5 12C7.5 10.8 8.2 9.71 9.26 9.07C10.32 8.43 11.68 8.43 12.74 9.07C13.8 9.71 14.5 10.8 14.5 12C14.5 13.2 13.8 14.29 12.74 14.93C11.68 15.57 10.32 15.57 9.26 14.93C8.2 14.29 7.5 13.2 7.5 12ZM18.71 12C18.71 9.84 17.64 7.87 15.82 6.58C14 5.29 11.71 5.29 9.89 6.58C8.07 7.87 7 9.84 7 12C7 14.16 8.07 16.13 9.89 17.42C11.71 18.71 14 18.71 15.82 17.42C17.64 16.13 18.71 14.16 18.71 12Z" fill="currentColor"/>
</svg>